<?xml version="1.0" encoding="UTF-8" standalone="no"?>
<!DOCTYPE svg PUBLIC "-//W3C//DTD SVG 1.1//EN" "http://www.w3.org/Graphics/SVG/1.1/DTD/svg11.dtd">
<svg height="100%" stroke-miterlimit="10" style="fill-rule:nonzero;clip-rule:evenodd;stroke-linecap:round;stroke-linejoin:round;" version="1.1" viewBox="0 0 32 32" width="100%" xml:space="preserve" xmlns="http://www.w3.org/2000/svg" xmlns:vectornator="http://vectornator.io" xmlns:xlink="http://www.w3.org/1999/xlink">
<defs/>
<g id="nfc">
<path d="M6.93112 12.8181C8.64923 12.8314 10.0312 14.2351 10.0178 15.9532C10.0045 17.6713 8.60087 19.0533 6.88276 19.0399C5.16465 19.0265 3.78268 17.6229 3.79604 15.9048C3.80939 14.1867 5.21302 12.8047 6.93112 12.8181Z" fill="#000000" fill-rule="nonzero" opacity="1" stroke="none" class="svg-elem-1"/>
<path d="M11.0475 21.6459C11.0505 21.2641 11.198 20.8844 11.4903 20.5937C12.7333 19.3582 13.4253 17.72 13.4388 15.9798C13.4523 14.2396 12.7859 12.5908 11.5622 11.3361C10.9843 10.7447 10.9946 9.79359 11.5885 9.21518C12.1814 8.63676 13.131 8.64805 13.7094 9.24143C15.4892 11.0659 16.4584 13.467 16.4387 16.0031C16.419 18.5391 15.4126 20.9249 13.6046 22.7215C13.0171 23.3058 12.0674 23.3023 11.4835 22.7148C11.1899 22.4195 11.0445 22.0316 11.0475 21.6459Z" fill="#000000" fill-rule="nonzero" opacity="1" stroke="none" class="svg-elem-2"/>
<path d="M15.1723 25.8363C15.1753 25.4525 15.3247 25.0699 15.62 24.7792C17.9809 22.4537 19.2956 19.3447 19.3214 16.0255C19.3472 12.7062 18.081 9.57716 15.7565 7.21527C15.1751 6.6248 15.1825 5.6756 15.773 5.09425C16.3634 4.51288 17.3131 4.52026 17.894 5.11073C20.781 8.04343 22.3534 11.9278 22.3213 16.0488C22.2893 20.1698 20.6567 24.0293 17.7245 26.9167C17.1345 27.4981 16.1848 27.4907 15.6035 26.9002C15.3128 26.605 15.1693 26.2201 15.1723 25.8363Z" fill="#000000" fill-rule="nonzero" opacity="1" stroke="none" class="svg-elem-3"/>
<path d="M19.2976 30.0257C19.3005 29.6429 19.449 29.2613 19.7428 28.9706C23.2267 25.5268 25.1662 20.9461 25.2041 16.0712C25.2419 11.1964 23.3739 6.58601 19.944 3.08853C19.3641 2.49709 19.3729 1.54791 19.9648 0.967537C20.5563 0.387157 21.5059 0.396489 22.0863 0.987938C26.0753 5.05618 28.2481 10.4209 28.204 16.0945C28.1599 21.7682 25.904 27.0985 21.8522 31.1042C21.2627 31.6866 20.313 31.6811 19.7307 31.0916C19.4385 30.7964 19.2946 30.4105 19.2976 30.0257Z" fill="#000000" fill-rule="nonzero" opacity="1" stroke="none" class="svg-elem-3"/>
</g>
</svg>
