<?xml version="1.0" encoding="UTF-8"?>
<!DOCTYPE svg PUBLIC "-//W3C//DTD SVG 1.1//EN" "http://www.w3.org/Graphics/SVG/1.1/DTD/svg11.dtd">
<svg xmlns="http://www.w3.org/2000/svg" version="1.1" width="880px" height="920px" style="shape-rendering:geometricPrecision; text-rendering:geometricPrecision; image-rendering:optimizeQuality; fill-rule:evenodd; clip-rule:evenodd" xmlns:xlink="http://www.w3.org/1999/xlink">
<g><path style="opacity:1" fill="#ffffff" d="M 598.5,415.5 C 578.439,414.924 558.439,414.258 538.5,413.5C 538.666,407.491 538.499,401.491 538,395.5C 522.327,380.66 506.827,365.66 491.5,350.5C 491.34,348.801 491.506,347.134 492,345.5C 510.137,300.25 527.97,254.916 545.5,209.5C 546.856,205.959 546.189,205.626 543.5,208.5C 509.464,239.205 475.13,269.538 440.5,299.5C 367.201,226.368 293.701,153.368 220,80.5C 219.333,264.5 219.333,448.5 220,632.5C 219.826,682.791 228.492,731.458 246,778.5C 253.942,798.098 265.442,815.265 280.5,830C 284.659,833.247 288.992,836.247 293.5,839C 252.141,839.954 210.807,839.62 169.5,838C 107.999,826.832 67.1653,791.665 47,732.5C 43.5116,720.748 41.5116,708.748 41,696.5C 40.3333,525.167 40.3333,353.833 41,182.5C 47.2343,117.163 80.7343,72.3299 141.5,48C 155.125,43.3956 169.125,40.729 183.5,40C 272.833,39.3333 362.167,39.3333 451.5,40C 451.167,40.3333 450.833,40.6667 450.5,41C 510.127,51.3026 550.293,84.8026 571,141.5C 585.8,186.297 594.133,232.297 596,279.5C 598.136,324.807 598.969,370.14 598.5,415.5 Z M 491.5,350.5 C 506.827,365.66 522.327,380.66 538,395.5C 538.499,401.491 538.666,407.491 538.5,413.5C 514.545,414.382 490.545,414.382 466.5,413.5C 475.12,392.597 483.453,371.597 491.5,350.5 Z"/></g>
<g><path style="opacity:1" fill="#7c7c7c" d="M 697.5,40.5 C 661.329,40.1682 625.329,40.5016 589.5,41.5C 588.711,41.2172 588.044,40.7172 587.5,40C 624.336,39.1689 661.002,39.3356 697.5,40.5 Z"/></g>
<g><path style="opacity:1" fill="#ffffff" d="M 589.5,41.5 C 625.329,40.5016 661.329,40.1682 697.5,40.5C 751.917,43.9474 793.084,68.9474 821,115.5C 831.913,134.404 838.079,154.737 839.5,176.5C 839.819,354.508 839.486,532.508 838.5,710.5C 828.891,767.893 797.224,807.726 743.5,830C 735.433,833.267 727.1,835.433 718.5,836.5C 712.489,836.801 706.489,837.301 700.5,838C 612.999,838.167 525.666,838.667 438.5,839.5C 414.34,836.535 389.674,827.369 364.5,812C 335.627,789.743 316.127,760.91 306,725.5C 297.611,697.724 292.111,669.391 289.5,640.5C 289.665,636.818 289.499,633.152 289,629.5C 288.768,628.263 288.268,627.263 287.5,626.5C 287.5,624.833 287.5,623.167 287.5,621.5C 287.666,615.824 287.499,610.157 287,604.5C 286.768,603.263 286.268,602.263 285.5,601.5C 285.5,598.833 285.5,596.167 285.5,593.5C 285.918,579.624 285.251,565.957 283.5,552.5C 283.5,532.5 283.5,512.5 283.5,492.5C 307.504,493.067 331.504,493.733 355.5,494.5C 367.833,507.5 380.5,520.167 393.5,532.5C 369.125,591.588 344.458,650.588 319.5,709.5C 321.044,712.272 323.377,713.439 326.5,713C 365.833,676.333 405.167,639.667 444.5,603C 448.061,599.927 451.728,597.094 455.5,594.5C 523.799,662.632 592.299,730.632 661,798.5C 661.667,610.5 661.667,422.5 661,234.5C 660.324,224.505 659.824,214.505 659.5,204.5C 659.811,199.234 659.145,194.234 657.5,189.5C 653.546,149.475 642.046,111.809 623,76.5C 614.717,62.0507 603.55,50.384 589.5,41.5 Z M 355.5,494.5 C 373.171,494.64 390.838,494.973 408.5,495.5C 403.78,507.94 398.78,520.274 393.5,532.5C 380.5,520.167 367.833,507.5 355.5,494.5 Z"/></g>
<g><path style="opacity:1" fill="#3c3c3c" d="M 657.5,189.5 C 659.145,194.234 659.811,199.234 659.5,204.5C 658.407,199.694 657.741,194.694 657.5,189.5 Z"/></g>
<g><path style="opacity:1" fill="#8e6f4e" d="M 545.5,209.5 C 545.158,208.662 544.492,208.328 543.5,208.5C 546.189,205.626 546.856,205.959 545.5,209.5 Z"/></g>
<g><path style="opacity:0.995" fill="#f4921b" d="M 543.5,208.5 C 544.492,208.328 545.158,208.662 545.5,209.5C 527.97,254.916 510.137,300.25 492,345.5C 491.506,347.134 491.34,348.801 491.5,350.5C 483.453,371.597 475.12,392.597 466.5,413.5C 490.545,414.382 514.545,414.382 538.5,413.5C 558.439,414.258 578.439,414.924 598.5,415.5C 612.873,413.964 627.206,414.297 641.5,416.5C 641.987,417.446 642.32,418.446 642.5,419.5C 640.765,422.743 638.432,425.577 635.5,428C 622.997,439.004 610.664,450.171 598.5,461.5C 598.167,461.5 597.833,461.5 597.5,461.5C 582.337,475.829 567.004,489.995 551.5,504C 550.092,504.315 548.759,503.982 547.5,503C 494.251,450.918 441.585,398.418 389.5,345.5C 392.116,342.545 394.782,339.545 397.5,336.5C 412.148,324.518 426.481,312.185 440.5,299.5C 475.13,269.538 509.464,239.205 543.5,208.5 Z"/></g>
<g><path style="opacity:1" fill="#ffffff" d="M 389.5,345.5 C 441.585,398.418 494.251,450.918 547.5,503C 548.759,503.982 550.092,504.315 551.5,504C 567.004,489.995 582.337,475.829 597.5,461.5C 597.832,520.336 597.499,579.002 596.5,637.5C 565.833,607.167 535.167,576.833 504.5,546.5C 452.224,493.724 399.558,440.89 346.5,388C 345.473,387.487 344.473,386.987 343.5,386.5C 343.167,385.167 342.833,385.167 342.5,386.5C 323.443,405.19 303.777,423.19 283.5,440.5C 283.333,373.833 283.5,307.166 284,240.5C 319.116,275.783 354.282,310.783 389.5,345.5 Z"/></g>
<g><path style="opacity:0.996" fill="#f5921b" d="M 342.5,386.5 C 342.833,386.5 343.167,386.5 343.5,386.5C 344.473,386.987 345.473,387.487 346.5,388C 399.558,440.89 452.224,493.724 504.5,546.5C 503.221,550.302 500.888,553.469 497.5,556C 483.33,568.671 469.33,581.504 455.5,594.5C 451.728,597.094 448.061,599.927 444.5,603C 405.167,639.667 365.833,676.333 326.5,713C 323.377,713.439 321.044,712.272 319.5,709.5C 344.458,650.588 369.125,591.588 393.5,532.5C 398.78,520.274 403.78,507.94 408.5,495.5C 390.838,494.973 373.171,494.64 355.5,494.5C 331.504,493.733 307.504,493.067 283.5,492.5C 266.805,492.811 250.138,492.311 233.5,491C 232.424,489.274 232.257,487.441 233,485.5C 249.356,469.979 266.189,454.979 283.5,440.5C 303.777,423.19 323.443,405.19 342.5,386.5 Z"/></g>
<g><path style="opacity:1" fill="#272727" d="M 839.5,176.5 C 840.666,351.666 840.833,527 840,702.5C 839.817,705.365 839.317,708.031 838.5,710.5C 839.486,532.508 839.819,354.508 839.5,176.5 Z"/></g>
<g><path style="opacity:1" fill="#5f5f5f" d="M 597.5,461.5 C 597.833,461.5 598.167,461.5 598.5,461.5C 598.833,520.504 598.5,579.504 597.5,638.5C 596.893,638.376 596.56,638.043 596.5,637.5C 597.499,579.002 597.832,520.336 597.5,461.5 Z"/></g>
<g><path style="opacity:1" fill="#343434" d="M 283.5,552.5 C 285.251,565.957 285.918,579.624 285.5,593.5C 284.319,580.014 283.652,566.347 283.5,552.5 Z"/></g>
<g><path style="opacity:1" fill="#3c3c3c" d="M 285.5,601.5 C 286.268,602.263 286.768,603.263 287,604.5C 287.499,610.157 287.666,615.824 287.5,621.5C 286.485,615.013 285.818,608.346 285.5,601.5 Z"/></g>
<g><path style="opacity:1" fill="#3b3b3b" d="M 287.5,626.5 C 288.268,627.263 288.768,628.263 289,629.5C 289.499,633.152 289.665,636.818 289.5,640.5C 288.479,636.02 287.813,631.353 287.5,626.5 Z"/></g>
<g><path style="opacity:0.008" fill="#ffffff" d="M 417.5,839.5 C 417.897,838.475 418.563,838.308 419.5,839C 418.906,839.464 418.239,839.631 417.5,839.5 Z"/></g>
<g><path style="opacity:1" fill="#2a2a2a" d="M 718.5,836.5 C 713.706,837.73 708.706,838.563 703.5,839C 615.167,839.5 526.834,839.667 438.5,839.5C 525.666,838.667 612.999,838.167 700.5,838C 706.489,837.301 712.489,836.801 718.5,836.5 Z"/></g>
</svg>
